<svg xmlns="http://www.w3.org/2000/svg" width="156" height="84" viewBox="0 0 156 84" shape-rendering="crispEdges"><g fill="#cc785c"><rect x="0" y="0" width="12" height="12"/><rect x="12" y="0" width="12" height="12"/><rect x="12" y="12" width="12" height="12"/><rect x="24" y="12" width="12" height="12"/><rect x="24" y="24" width="12" height="12"/><rect x="36" y="24" width="12" height="12"/><rect x="36" y="36" width="12" height="12"/><rect x="48" y="36" width="12" height="12"/><rect x="24" y="48" width="12" height="12"/><rect x="36" y="48" width="12" height="12"/><rect x="12" y="60" width="12" height="12"/><rect x="24" y="60" width="12" height="12"/><rect x="0" y="72" width="12" height="12"/><rect x="12" y="72" width="12" height="12"/><rect x="96" y="72" width="12" height="12"/><rect x="108" y="72" width="12" height="12"/><rect x="120" y="72" width="12" height="12"/><rect x="132" y="72" width="12" height="12"/><rect x="144" y="72" width="12" height="12"/></g></svg>
